<svg viewBox="-16 -32 880 192" width="880" height="192" xmlns="http://www.w3.org/2000/svg"><desc>Generated with https://github.com/Platane/snk</desc><style>:root{--cb:#1b1f230a;--cs:purple;--ce:#ebedf0;--c0:#ebedf0;--c1:#9be9a8;--c2:#40c463;--c3:#30a14e;--c4:#216e39}.c{shape-rendering:geometricPrecision;fill:var(--ce);stroke-width:1px;stroke:var(--cb);animation:none 42500ms linear infinite;width:12px;height:12px}@keyframes c0{47.52%{fill:var(--c1)}47.54%,100%{fill:var(--ce)}}.c.c0{fill:var(--c1);animation-name:c0}@keyframes c1{1.4%{fill:var(--c1)}1.42%,100%{fill:var(--ce)}}.c.c1{fill:var(--c1);animation-name:c1}@keyframes c2{2.34%{fill:var(--c1)}2.36%,100%{fill:var(--ce)}}.c.c2{fill:var(--c1);animation-name:c2}@keyframes c3{3.28%{fill:var(--c1)}3.3%,100%{fill:var(--ce)}}.c.c3{fill:var(--c1);animation-name:c3}@keyframes c4{75.52%{fill:var(--c3)}75.54%,100%{fill:var(--ce)}}.c.c4{fill:var(--c3);animation-name:c4}@keyframes c5{49.4%{fill:var(--c2)}49.42%,100%{fill:var(--ce)}}.c.c5{fill:var(--c2);animation-name:c5}@keyframes c6{3.99%{fill:var(--c1)}4.01%,100%{fill:var(--ce)}}.c.c6{fill:var(--c1);animation-name:c6}@keyframes c7{4.46%{fill:var(--c1)}4.48%,100%{fill:var(--ce)}}.c.c7{fill:var(--c1);animation-name:c7}@keyframes c8{4.93%{fill:var(--c1)}4.95%,100%{fill:var(--ce)}}.c.c8{fill:var(--c1);animation-name:c8}@keyframes c9{5.87%{fill:var(--c1)}5.89%,100%{fill:var(--ce)}}.c.c9{fill:var(--c1);animation-name:c9}@keyframes ca{7.99%{fill:var(--c1)}8.01%,100%{fill:var(--ce)}}.c.ca{fill:var(--c1);animation-name:ca}@keyframes cb{51.99%{fill:var(--c2)}52.01%,100%{fill:var(--ce)}}.c.cb{fill:var(--c2);animation-name:cb}@keyframes cc{6.11%{fill:var(--c1)}6.13%,100%{fill:var(--ce)}}.c.cc{fill:var(--c1);animation-name:cc}@keyframes cd{7.52%{fill:var(--c1)}7.54%,100%{fill:var(--ce)}}.c.cd{fill:var(--c1);animation-name:cd}@keyframes ce{6.58%{fill:var(--c1)}6.6%,100%{fill:var(--ce)}}.c.ce{fill:var(--c1);animation-name:ce}@keyframes cf{6.34%{fill:var(--c1)}6.36%,100%{fill:var(--ce)}}.c.cf{fill:var(--c1);animation-name:cf}@keyframes cg{7.28%{fill:var(--c1)}7.3%,100%{fill:var(--ce)}}.c.cg{fill:var(--c1);animation-name:cg}@keyframes ch{7.05%{fill:var(--c1)}7.07%,100%{fill:var(--ce)}}.c.ch{fill:var(--c1);animation-name:ch}@keyframes ci{9.64%{fill:var(--c1)}9.66%,100%{fill:var(--ce)}}.c.ci{fill:var(--c1);animation-name:ci}@keyframes cj{54.58%{fill:var(--c2)}54.6%,100%{fill:var(--ce)}}.c.cj{fill:var(--c2);animation-name:cj}@keyframes ck{11.05%{fill:var(--c1)}11.07%,100%{fill:var(--ce)}}.c.ck{fill:var(--c1);animation-name:ck}@keyframes cl{55.05%{fill:var(--c2)}55.07%,100%{fill:var(--ce)}}.c.cl{fill:var(--c2);animation-name:cl}@keyframes cm{39.05%{fill:var(--c1)}39.07%,100%{fill:var(--ce)}}.c.cm{fill:var(--c1);animation-name:cm}@keyframes cn{12.46%{fill:var(--c1)}12.48%,100%{fill:var(--ce)}}.c.cn{fill:var(--c1);animation-name:cn}@keyframes co{38.11%{fill:var(--c1)}38.13%,100%{fill:var(--ce)}}.c.co{fill:var(--c1);animation-name:co}@keyframes cp{17.64%{fill:var(--c1)}17.66%,100%{fill:var(--ce)}}.c.cp{fill:var(--c1);animation-name:cp}@keyframes cq{17.87%{fill:var(--c1)}17.89%,100%{fill:var(--ce)}}.c.cq{fill:var(--c1);animation-name:cq}@keyframes cr{19.99%{fill:var(--c1)}20.01%,100%{fill:var(--ce)}}.c.cr{fill:var(--c1);animation-name:cr}@keyframes cs{12.7%{fill:var(--c1)}12.72%,100%{fill:var(--ce)}}.c.cs{fill:var(--c1);animation-name:cs}@keyframes ct{20.46%{fill:var(--c1)}20.48%,100%{fill:var(--ce)}}.c.ct{fill:var(--c1);animation-name:ct}@keyframes cu{17.4%{fill:var(--c1)}17.42%,100%{fill:var(--ce)}}.c.cu{fill:var(--c1);animation-name:cu}@keyframes cv{18.11%{fill:var(--c1)}18.13%,100%{fill:var(--ce)}}.c.cv{fill:var(--c1);animation-name:cv}@keyframes cw{19.75%{fill:var(--c1)}19.77%,100%{fill:var(--ce)}}.c.cw{fill:var(--c1);animation-name:cw}@keyframes cx{12.93%{fill:var(--c1)}12.95%,100%{fill:var(--ce)}}.c.cx{fill:var(--c1);animation-name:cx}@keyframes cy{20.7%{fill:var(--c1)}20.72%,100%{fill:var(--ce)}}.c.cy{fill:var(--c1);animation-name:cy}@keyframes cz{17.17%{fill:var(--c1)}17.19%,100%{fill:var(--ce)}}.c.cz{fill:var(--c1);animation-name:cz}@keyframes c10{18.34%{fill:var(--c1)}18.36%,100%{fill:var(--ce)}}.c.c10{fill:var(--c1);animation-name:c10}@keyframes c11{13.17%{fill:var(--c1)}13.19%,100%{fill:var(--ce)}}.c.c11{fill:var(--c1);animation-name:c11}@keyframes c12{16.93%{fill:var(--c1)}16.95%,100%{fill:var(--ce)}}.c.c12{fill:var(--c1);animation-name:c12}@keyframes c13{18.58%{fill:var(--c1)}18.6%,100%{fill:var(--ce)}}.c.c13{fill:var(--c1);animation-name:c13}@keyframes c14{19.28%{fill:var(--c1)}19.3%,100%{fill:var(--ce)}}.c.c14{fill:var(--c1);animation-name:c14}@keyframes c15{13.4%{fill:var(--c1)}13.42%,100%{fill:var(--ce)}}.c.c15{fill:var(--c1);animation-name:c15}@keyframes c16{21.17%{fill:var(--c1)}21.19%,100%{fill:var(--ce)}}.c.c16{fill:var(--c1);animation-name:c16}@keyframes c17{18.81%{fill:var(--c1)}18.83%,100%{fill:var(--ce)}}.c.c17{fill:var(--c1);animation-name:c17}@keyframes c18{83.05%{fill:var(--c4)}83.07%,100%{fill:var(--ce)}}.c.c18{fill:var(--c4);animation-name:c18}@keyframes c19{16.46%{fill:var(--c1)}16.48%,100%{fill:var(--ce)}}.c.c19{fill:var(--c1);animation-name:c19}@keyframes c1a{59.99%{fill:var(--c2)}60.01%,100%{fill:var(--ce)}}.c.c1a{fill:var(--c2);animation-name:c1a}@keyframes c1b{67.75%{fill:var(--c3)}67.77%,100%{fill:var(--ce)}}.c.c1b{fill:var(--c3);animation-name:c1b}@keyframes c1c{13.87%{fill:var(--c1)}13.89%,100%{fill:var(--ce)}}.c.c1c{fill:var(--c1);animation-name:c1c}@keyframes c1d{22.11%{fill:var(--c1)}22.13%,100%{fill:var(--ce)}}.c.c1d{fill:var(--c1);animation-name:c1d}@keyframes c1e{67.28%{fill:var(--c3)}67.3%,100%{fill:var(--ce)}}.c.c1e{fill:var(--c3);animation-name:c1e}@keyframes c1f{58.58%{fill:var(--c2)}58.6%,100%{fill:var(--ce)}}.c.c1f{fill:var(--c2);animation-name:c1f}@keyframes c1g{14.11%{fill:var(--c1)}14.13%,100%{fill:var(--ce)}}.c.c1g{fill:var(--c1);animation-name:c1g}@keyframes c1h{22.34%{fill:var(--c1)}22.36%,100%{fill:var(--ce)}}.c.c1h{fill:var(--c1);animation-name:c1h}@keyframes c1i{23.52%{fill:var(--c1)}23.54%,100%{fill:var(--ce)}}.c.c1i{fill:var(--c1);animation-name:c1i}@keyframes c1j{22.58%{fill:var(--c1)}22.6%,100%{fill:var(--ce)}}.c.c1j{fill:var(--c1);animation-name:c1j}@keyframes c1k{15.75%{fill:var(--c1)}15.77%,100%{fill:var(--ce)}}.c.c1k{fill:var(--c1);animation-name:c1k}@keyframes c1l{14.58%{fill:var(--c1)}14.6%,100%{fill:var(--ce)}}.c.c1l{fill:var(--c1);animation-name:c1l}@keyframes c1m{22.81%{fill:var(--c1)}22.83%,100%{fill:var(--ce)}}.c.c1m{fill:var(--c1);animation-name:c1m}@keyframes c1n{15.52%{fill:var(--c1)}15.54%,100%{fill:var(--ce)}}.c.c1n{fill:var(--c1);animation-name:c1n}@keyframes c1o{15.28%{fill:var(--c1)}15.3%,100%{fill:var(--ce)}}.c.c1o{fill:var(--c1);animation-name:c1o}@keyframes c1p{15.05%{fill:var(--c1)}15.07%,100%{fill:var(--ce)}}.c.c1p{fill:var(--c1);animation-name:c1p}@keyframes c1q{14.81%{fill:var(--c1)}14.83%,100%{fill:var(--ce)}}.c.c1q{fill:var(--c1);animation-name:c1q}@keyframes c1r{24.7%{fill:var(--c1)}24.72%,100%{fill:var(--ce)}}.c.c1r{fill:var(--c1);animation-name:c1r}@keyframes c1s{30.58%{fill:var(--c1)}30.6%,100%{fill:var(--ce)}}.c.c1s{fill:var(--c1);animation-name:c1s}@keyframes c1t{30.81%{fill:var(--c1)}30.83%,100%{fill:var(--ce)}}.c.c1t{fill:var(--c1);animation-name:c1t}@keyframes c1u{25.17%{fill:var(--c1)}25.19%,100%{fill:var(--ce)}}.c.c1u{fill:var(--c1);animation-name:c1u}@keyframes c1v{24.93%{fill:var(--c1)}24.95%,100%{fill:var(--ce)}}.c.c1v{fill:var(--c1);animation-name:c1v}@keyframes c1w{30.34%{fill:var(--c1)}30.36%,100%{fill:var(--ce)}}.c.c1w{fill:var(--c1);animation-name:c1w}@keyframes c1x{30.11%{fill:var(--c1)}30.13%,100%{fill:var(--ce)}}.c.c1x{fill:var(--c1);animation-name:c1x}@keyframes c1y{31.28%{fill:var(--c1)}31.3%,100%{fill:var(--ce)}}.c.c1y{fill:var(--c1);animation-name:c1y}@keyframes c1z{31.52%{fill:var(--c1)}31.54%,100%{fill:var(--ce)}}.c.c1z{fill:var(--c1);animation-name:c1z}@keyframes c20{25.87%{fill:var(--c1)}25.89%,100%{fill:var(--ce)}}.c.c20{fill:var(--c1);animation-name:c20}@keyframes c21{63.05%{fill:var(--c2)}63.07%,100%{fill:var(--ce)}}.c.c21{fill:var(--c2);animation-name:c21}@keyframes c22{31.75%{fill:var(--c1)}31.77%,100%{fill:var(--ce)}}.c.c22{fill:var(--c1);animation-name:c22}@keyframes c23{64.93%{fill:var(--c3)}64.95%,100%{fill:var(--ce)}}.c.c23{fill:var(--c3);animation-name:c23}@keyframes c24{26.11%{fill:var(--c1)}26.13%,100%{fill:var(--ce)}}.c.c24{fill:var(--c1);animation-name:c24}@keyframes c25{64.46%{fill:var(--c3)}64.48%,100%{fill:var(--ce)}}.c.c25{fill:var(--c3);animation-name:c25}@keyframes c26{33.64%{fill:var(--c1)}33.66%,100%{fill:var(--ce)}}.c.c26{fill:var(--c1);animation-name:c26}@keyframes c27{31.99%{fill:var(--c1)}32.01%,100%{fill:var(--ce)}}.c.c27{fill:var(--c1);animation-name:c27}@keyframes c28{28.46%{fill:var(--c1)}28.48%,100%{fill:var(--ce)}}.c.c28{fill:var(--c1);animation-name:c28}@keyframes c29{26.34%{fill:var(--c1)}26.36%,100%{fill:var(--ce)}}.c.c29{fill:var(--c1);animation-name:c29}@keyframes c2a{27.99%{fill:var(--c1)}28.01%,100%{fill:var(--ce)}}.c.c2a{fill:var(--c1);animation-name:c2a}@keyframes c2b{32.23%{fill:var(--c1)}32.25%,100%{fill:var(--ce)}}.c.c2b{fill:var(--c1);animation-name:c2b}@keyframes c2c{87.05%{fill:var(--c4)}87.07%,100%{fill:var(--ce)}}.c.c2c{fill:var(--c4);animation-name:c2c}@keyframes c2d{26.58%{fill:var(--c1)}26.6%,100%{fill:var(--ce)}}.c.c2d{fill:var(--c1);animation-name:c2d}@keyframes c2e{63.99%{fill:var(--c2)}64.01%,100%{fill:var(--ce)}}.c.c2e{fill:var(--c2);animation-name:c2e}@keyframes c2f{27.52%{fill:var(--c1)}27.54%,100%{fill:var(--ce)}}.c.c2f{fill:var(--c1);animation-name:c2f}@keyframes c2g{32.46%{fill:var(--c1)}32.48%,100%{fill:var(--ce)}}.c.c2g{fill:var(--c1);animation-name:c2g}@keyframes c2h{32.7%{fill:var(--c1)}32.72%,100%{fill:var(--ce)}}.c.c2h{fill:var(--c1);animation-name:c2h}.u{transform-origin:0 0;transform:scale(0,1);animation:none linear 42500ms infinite}@keyframes u0{1.4%{transform:scale(0.000,1)}1.42%,2.34%{transform:scale(0.013,1)}2.36%,3.28%{transform:scale(0.027,1)}3.3%,3.99%{transform:scale(0.040,1)}4.01%,4.46%{transform:scale(0.053,1)}4.48%,4.93%{transform:scale(0.067,1)}4.95%,5.87%{transform:scale(0.080,1)}5.89%,6.11%{transform:scale(0.093,1)}6.13%,6.34%{transform:scale(0.107,1)}6.36%,6.58%{transform:scale(0.120,1)}6.6%,7.05%{transform:scale(0.133,1)}7.07%,7.28%{transform:scale(0.147,1)}7.3%,7.52%{transform:scale(0.160,1)}7.54%,7.99%{transform:scale(0.173,1)}8.01%,9.64%{transform:scale(0.187,1)}9.66%,11.05%{transform:scale(0.200,1)}11.07%,12.46%{transform:scale(0.213,1)}12.48%,12.7%{transform:scale(0.227,1)}12.72%,12.93%{transform:scale(0.240,1)}12.95%,13.17%{transform:scale(0.253,1)}13.19%,13.4%{transform:scale(0.267,1)}13.42%,13.87%{transform:scale(0.280,1)}13.89%,14.11%{transform:scale(0.293,1)}14.13%,14.58%{transform:scale(0.307,1)}14.6%,14.81%{transform:scale(0.320,1)}14.83%,15.05%{transform:scale(0.333,1)}15.07%,15.28%{transform:scale(0.347,1)}15.3%,15.52%{transform:scale(0.360,1)}15.54%,15.75%{transform:scale(0.373,1)}15.77%,16.46%{transform:scale(0.387,1)}16.48%,16.93%{transform:scale(0.400,1)}16.95%,17.17%{transform:scale(0.413,1)}17.19%,17.4%{transform:scale(0.427,1)}17.42%,17.64%{transform:scale(0.440,1)}17.66%,17.87%{transform:scale(0.453,1)}17.89%,18.11%{transform:scale(0.467,1)}18.13%,18.34%{transform:scale(0.480,1)}18.36%,18.58%{transform:scale(0.493,1)}18.6%,18.81%{transform:scale(0.507,1)}18.83%,19.28%{transform:scale(0.520,1)}19.3%,19.75%{transform:scale(0.533,1)}19.77%,19.99%{transform:scale(0.547,1)}20.01%,20.46%{transform:scale(0.560,1)}20.48%,20.7%{transform:scale(0.573,1)}20.72%,21.17%{transform:scale(0.587,1)}21.19%,22.11%{transform:scale(0.600,1)}22.13%,22.34%{transform:scale(0.613,1)}22.36%,22.58%{transform:scale(0.627,1)}22.6%,22.81%{transform:scale(0.640,1)}22.83%,23.52%{transform:scale(0.653,1)}23.54%,24.7%{transform:scale(0.667,1)}24.72%,24.93%{transform:scale(0.680,1)}24.95%,25.17%{transform:scale(0.693,1)}25.19%,25.87%{transform:scale(0.707,1)}25.89%,26.11%{transform:scale(0.720,1)}26.13%,26.34%{transform:scale(0.733,1)}26.36%,26.58%{transform:scale(0.747,1)}26.6%,27.52%{transform:scale(0.760,1)}27.54%,27.99%{transform:scale(0.773,1)}28.01%,28.46%{transform:scale(0.787,1)}28.48%,30.11%{transform:scale(0.800,1)}30.13%,30.34%{transform:scale(0.813,1)}30.36%,30.58%{transform:scale(0.827,1)}30.6%,30.81%{transform:scale(0.840,1)}30.83%,31.28%{transform:scale(0.853,1)}31.3%,31.52%{transform:scale(0.867,1)}31.54%,31.75%{transform:scale(0.880,1)}31.77%,31.99%{transform:scale(0.893,1)}32.01%,32.23%{transform:scale(0.907,1)}32.25%,32.46%{transform:scale(0.920,1)}32.48%,32.7%{transform:scale(0.933,1)}32.72%,33.64%{transform:scale(0.947,1)}33.66%,38.11%{transform:scale(0.960,1)}38.13%,39.05%{transform:scale(0.973,1)}39.07%,47.52%{transform:scale(0.987,1)}47.54%,100%{transform:scale(1.000,1)}}.u.u0{fill:var(--c1);animation-name:u0;transform-origin:0.0px 0}@keyframes u1{49.4%{transform:scale(0.000,1)}49.42%,51.99%{transform:scale(0.125,1)}52.01%,54.58%{transform:scale(0.250,1)}54.6%,55.05%{transform:scale(0.375,1)}55.07%,58.58%{transform:scale(0.500,1)}58.6%,59.99%{transform:scale(0.625,1)}60.01%,63.05%{transform:scale(0.750,1)}63.07%,63.99%{transform:scale(0.875,1)}64.01%,100%{transform:scale(1.000,1)}}.u.u1{fill:var(--c2);animation-name:u1;transform-origin:706.7px 0}@keyframes u2{64.46%{transform:scale(0.000,1)}64.48%,64.93%{transform:scale(0.200,1)}64.95%,67.28%{transform:scale(0.400,1)}67.3%,67.75%{transform:scale(0.600,1)}67.77%,75.52%{transform:scale(0.800,1)}75.54%,100%{transform:scale(1.000,1)}}.u.u2{fill:var(--c3);animation-name:u2;transform-origin:782.0px 0}@keyframes u3{83.05%{transform:scale(0.000,1)}83.07%,87.05%{transform:scale(0.500,1)}87.07%,100%{transform:scale(1.000,1)}}.u.u3{fill:var(--c4);animation-name:u3;transform-origin:829.2px 0}.s{shape-rendering:geometricPrecision;fill:var(--cs);animation:none linear 42500ms infinite}@keyframes s0{0%,99.76%{transform:translate(0px,-16px)}0.24%{transform:translate(0px,0px)}0.94%{transform:translate(48px,0px)}1.41%{transform:translate(48px,32px)}1.88%{transform:translate(80px,32px)}2.35%{transform:translate(80px,64px)}2.82%{transform:translate(112px,64px)}3.06%{transform:translate(112px,48px)}4.47%{transform:translate(208px,48px)}4.94%{transform:translate(208px,80px)}5.65%{transform:translate(256px,80px)}5.88%{transform:translate(256px,64px)}6.35%{transform:translate(288px,64px)}6.59%{transform:translate(288px,48px)}6.82%{transform:translate(304px,48px)}7.29%{transform:translate(304px,16px)}7.76%{transform:translate(272px,16px)}8%{transform:translate(272px,32px)}10.35%{transform:translate(432px,32px)}10.82%{transform:translate(432px,64px)}14.82%{transform:translate(704px,64px)}15.53%{transform:translate(704px,16px)}17.65%{transform:translate(560px,16px)}17.88%{transform:translate(560px,32px)}18.82%,60.24%{transform:translate(624px,32px)}19.06%{transform:translate(624px,48px)}20%{transform:translate(560px,48px)}20.47%{transform:translate(560px,80px)}21.18%,57.41%{transform:translate(608px,80px)}21.41%,57.65%{transform:translate(608px,64px)}21.88%{transform:translate(640px,64px)}22.12%{transform:translate(640px,80px)}22.82%{transform:translate(688px,80px)}23.29%{transform:translate(688px,48px)}23.53%,58.82%{transform:translate(672px,48px)}23.76%{transform:translate(672px,32px)}24.94%{transform:translate(752px,32px)}25.18%{transform:translate(752px,16px)}25.65%{transform:translate(784px,16px)}25.88%{transform:translate(784px,32px)}26.82%{transform:translate(848px,32px)}27.29%{transform:translate(848px,64px)}27.76%,33.41%{transform:translate(816px,64px)}28.71%{transform:translate(816px,0px)}29.41%{transform:translate(768px,0px)}30.12%{transform:translate(768px,48px)}30.59%{transform:translate(736px,48px)}30.82%{transform:translate(736px,64px)}31.29%,34.59%{transform:translate(768px,64px)}31.53%,34.35%{transform:translate(768px,80px)}32.47%,86.12%{transform:translate(832px,80px)}32.71%{transform:translate(832px,96px)}32.94%{transform:translate(816px,96px)}33.65%{transform:translate(800px,64px)}33.88%{transform:translate(800px,80px)}37.88%{transform:translate(544px,64px)}38.12%{transform:translate(544px,80px)}38.35%{transform:translate(528px,80px)}39.06%{transform:translate(528px,32px)}46.82%{transform:translate(0px,32px)}47.53%{transform:translate(0px,80px)}51.53%{transform:translate(272px,80px)}52%{transform:translate(272px,48px)}54.59%{transform:translate(448px,48px)}55.06%{transform:translate(448px,80px)}58.35%{transform:translate(656px,64px)}58.59%{transform:translate(656px,48px)}59.29%{transform:translate(672px,16px)}59.76%{transform:translate(640px,16px)}60%,67.53%{transform:translate(640px,32px)}60.71%,82.82%{transform:translate(624px,64px)}63.76%{transform:translate(832px,64px)}64%{transform:translate(832px,48px)}64.47%{transform:translate(800px,48px)}64.94%{transform:translate(800px,16px)}67.06%{transform:translate(656px,16px)}67.29%{transform:translate(656px,32px)}67.76%{transform:translate(640px,48px)}75.29%{transform:translate(128px,48px)}75.53%{transform:translate(128px,64px)}83.06%{transform:translate(624px,80px)}87.06%{transform:translate(832px,16px)}97.65%{transform:translate(112px,16px)}98.12%{transform:translate(112px,-16px)}}.s.s0{transform:translate(0px,-16px);animation-name:s0}@keyframes s1{0%,99.76%{transform:translate(16px,-16px)}0.24%{transform:translate(0px,-16px)}0.47%{transform:translate(0px,0px)}1.18%{transform:translate(48px,0px)}1.65%{transform:translate(48px,32px)}2.12%{transform:translate(80px,32px)}2.59%{transform:translate(80px,64px)}3.06%{transform:translate(112px,64px)}3.29%{transform:translate(112px,48px)}4.71%{transform:translate(208px,48px)}5.18%{transform:translate(208px,80px)}5.88%{transform:translate(256px,80px)}6.12%{transform:translate(256px,64px)}6.59%{transform:translate(288px,64px)}6.82%{transform:translate(288px,48px)}7.06%{transform:translate(304px,48px)}7.53%{transform:translate(304px,16px)}8%{transform:translate(272px,16px)}8.24%{transform:translate(272px,32px)}10.59%{transform:translate(432px,32px)}11.06%{transform:translate(432px,64px)}15.06%{transform:translate(704px,64px)}15.76%{transform:translate(704px,16px)}17.88%{transform:translate(560px,16px)}18.12%{transform:translate(560px,32px)}19.06%,60.47%{transform:translate(624px,32px)}19.29%{transform:translate(624px,48px)}20.24%{transform:translate(560px,48px)}20.71%{transform:translate(560px,80px)}21.41%,57.65%{transform:translate(608px,80px)}21.65%,57.88%{transform:translate(608px,64px)}22.12%{transform:translate(640px,64px)}22.35%{transform:translate(640px,80px)}23.06%{transform:translate(688px,80px)}23.53%{transform:translate(688px,48px)}23.76%,59.06%{transform:translate(672px,48px)}24%{transform:translate(672px,32px)}25.18%{transform:translate(752px,32px)}25.41%{transform:translate(752px,16px)}25.88%{transform:translate(784px,16px)}26.12%{transform:translate(784px,32px)}27.06%{transform:translate(848px,32px)}27.53%{transform:translate(848px,64px)}28%,33.65%{transform:translate(816px,64px)}28.94%{transform:translate(816px,0px)}29.65%{transform:translate(768px,0px)}30.35%{transform:translate(768px,48px)}30.82%{transform:translate(736px,48px)}31.06%{transform:translate(736px,64px)}31.53%,34.82%{transform:translate(768px,64px)}31.76%,34.59%{transform:translate(768px,80px)}32.71%,86.35%{transform:translate(832px,80px)}32.94%{transform:translate(832px,96px)}33.18%{transform:translate(816px,96px)}33.88%{transform:translate(800px,64px)}34.12%{transform:translate(800px,80px)}38.12%{transform:translate(544px,64px)}38.35%{transform:translate(544px,80px)}38.59%{transform:translate(528px,80px)}39.29%{transform:translate(528px,32px)}47.06%{transform:translate(0px,32px)}47.76%{transform:translate(0px,80px)}51.76%{transform:translate(272px,80px)}52.24%{transform:translate(272px,48px)}54.82%{transform:translate(448px,48px)}55.29%{transform:translate(448px,80px)}58.59%{transform:translate(656px,64px)}58.82%{transform:translate(656px,48px)}59.53%{transform:translate(672px,16px)}60%{transform:translate(640px,16px)}60.24%,67.76%{transform:translate(640px,32px)}60.94%,83.06%{transform:translate(624px,64px)}64%{transform:translate(832px,64px)}64.24%{transform:translate(832px,48px)}64.71%{transform:translate(800px,48px)}65.18%{transform:translate(800px,16px)}67.29%{transform:translate(656px,16px)}67.53%{transform:translate(656px,32px)}68%{transform:translate(640px,48px)}75.53%{transform:translate(128px,48px)}75.76%{transform:translate(128px,64px)}83.29%{transform:translate(624px,80px)}87.29%{transform:translate(832px,16px)}97.88%{transform:translate(112px,16px)}98.35%{transform:translate(112px,-16px)}}.s.s1{transform:translate(16px,-16px);animation-name:s1}@keyframes s2{0%,99.76%{transform:translate(32px,-16px)}0.47%{transform:translate(0px,-16px)}0.71%{transform:translate(0px,0px)}1.41%{transform:translate(48px,0px)}1.88%{transform:translate(48px,32px)}2.35%{transform:translate(80px,32px)}2.82%{transform:translate(80px,64px)}3.29%{transform:translate(112px,64px)}3.53%{transform:translate(112px,48px)}4.94%{transform:translate(208px,48px)}5.41%{transform:translate(208px,80px)}6.12%{transform:translate(256px,80px)}6.35%{transform:translate(256px,64px)}6.82%{transform:translate(288px,64px)}7.06%{transform:translate(288px,48px)}7.29%{transform:translate(304px,48px)}7.76%{transform:translate(304px,16px)}8.24%{transform:translate(272px,16px)}8.47%{transform:translate(272px,32px)}10.82%{transform:translate(432px,32px)}11.29%{transform:translate(432px,64px)}15.29%{transform:translate(704px,64px)}16%{transform:translate(704px,16px)}18.12%{transform:translate(560px,16px)}18.35%{transform:translate(560px,32px)}19.29%,60.71%{transform:translate(624px,32px)}19.53%{transform:translate(624px,48px)}20.47%{transform:translate(560px,48px)}20.94%{transform:translate(560px,80px)}21.65%,57.88%{transform:translate(608px,80px)}21.88%,58.12%{transform:translate(608px,64px)}22.35%{transform:translate(640px,64px)}22.59%{transform:translate(640px,80px)}23.29%{transform:translate(688px,80px)}23.76%{transform:translate(688px,48px)}24%,59.29%{transform:translate(672px,48px)}24.24%{transform:translate(672px,32px)}25.41%{transform:translate(752px,32px)}25.65%{transform:translate(752px,16px)}26.12%{transform:translate(784px,16px)}26.35%{transform:translate(784px,32px)}27.29%{transform:translate(848px,32px)}27.76%{transform:translate(848px,64px)}28.24%,33.88%{transform:translate(816px,64px)}29.18%{transform:translate(816px,0px)}29.88%{transform:translate(768px,0px)}30.59%{transform:translate(768px,48px)}31.06%{transform:translate(736px,48px)}31.29%{transform:translate(736px,64px)}31.76%,35.06%{transform:translate(768px,64px)}32%,34.82%{transform:translate(768px,80px)}32.94%,86.59%{transform:translate(832px,80px)}33.18%{transform:translate(832px,96px)}33.41%{transform:translate(816px,96px)}34.12%{transform:translate(800px,64px)}34.35%{transform:translate(800px,80px)}38.35%{transform:translate(544px,64px)}38.59%{transform:translate(544px,80px)}38.82%{transform:translate(528px,80px)}39.53%{transform:translate(528px,32px)}47.29%{transform:translate(0px,32px)}48%{transform:translate(0px,80px)}52%{transform:translate(272px,80px)}52.47%{transform:translate(272px,48px)}55.06%{transform:translate(448px,48px)}55.53%{transform:translate(448px,80px)}58.82%{transform:translate(656px,64px)}59.06%{transform:translate(656px,48px)}59.76%{transform:translate(672px,16px)}60.24%{transform:translate(640px,16px)}60.47%,68%{transform:translate(640px,32px)}61.18%,83.29%{transform:translate(624px,64px)}64.24%{transform:translate(832px,64px)}64.47%{transform:translate(832px,48px)}64.94%{transform:translate(800px,48px)}65.41%{transform:translate(800px,16px)}67.53%{transform:translate(656px,16px)}67.76%{transform:translate(656px,32px)}68.24%{transform:translate(640px,48px)}75.76%{transform:translate(128px,48px)}76%{transform:translate(128px,64px)}83.53%{transform:translate(624px,80px)}87.53%{transform:translate(832px,16px)}98.12%{transform:translate(112px,16px)}98.59%{transform:translate(112px,-16px)}}.s.s2{transform:translate(32px,-16px);animation-name:s2}@keyframes s3{0%,99.76%{transform:translate(48px,-16px)}0.71%{transform:translate(0px,-16px)}0.94%{transform:translate(0px,0px)}1.65%{transform:translate(48px,0px)}2.12%{transform:translate(48px,32px)}2.59%{transform:translate(80px,32px)}3.06%{transform:translate(80px,64px)}3.53%{transform:translate(112px,64px)}3.76%{transform:translate(112px,48px)}5.18%{transform:translate(208px,48px)}5.65%{transform:translate(208px,80px)}6.35%{transform:translate(256px,80px)}6.59%{transform:translate(256px,64px)}7.06%{transform:translate(288px,64px)}7.29%{transform:translate(288px,48px)}7.53%{transform:translate(304px,48px)}8%{transform:translate(304px,16px)}8.47%{transform:translate(272px,16px)}8.71%{transform:translate(272px,32px)}11.06%{transform:translate(432px,32px)}11.53%{transform:translate(432px,64px)}15.53%{transform:translate(704px,64px)}16.24%{transform:translate(704px,16px)}18.35%{transform:translate(560px,16px)}18.59%{transform:translate(560px,32px)}19.53%,60.94%{transform:translate(624px,32px)}19.76%{transform:translate(624px,48px)}20.71%{transform:translate(560px,48px)}21.18%{transform:translate(560px,80px)}21.88%,58.12%{transform:translate(608px,80px)}22.12%,58.35%{transform:translate(608px,64px)}22.59%{transform:translate(640px,64px)}22.82%{transform:translate(640px,80px)}23.53%{transform:translate(688px,80px)}24%{transform:translate(688px,48px)}24.24%,59.53%{transform:translate(672px,48px)}24.47%{transform:translate(672px,32px)}25.65%{transform:translate(752px,32px)}25.88%{transform:translate(752px,16px)}26.35%{transform:translate(784px,16px)}26.59%{transform:translate(784px,32px)}27.53%{transform:translate(848px,32px)}28%{transform:translate(848px,64px)}28.47%,34.12%{transform:translate(816px,64px)}29.41%{transform:translate(816px,0px)}30.12%{transform:translate(768px,0px)}30.82%{transform:translate(768px,48px)}31.29%{transform:translate(736px,48px)}31.53%{transform:translate(736px,64px)}32%,35.29%{transform:translate(768px,64px)}32.24%,35.06%{transform:translate(768px,80px)}33.18%,86.82%{transform:translate(832px,80px)}33.41%{transform:translate(832px,96px)}33.65%{transform:translate(816px,96px)}34.35%{transform:translate(800px,64px)}34.59%{transform:translate(800px,80px)}38.59%{transform:translate(544px,64px)}38.82%{transform:translate(544px,80px)}39.06%{transform:translate(528px,80px)}39.76%{transform:translate(528px,32px)}47.53%{transform:translate(0px,32px)}48.24%{transform:translate(0px,80px)}52.24%{transform:translate(272px,80px)}52.71%{transform:translate(272px,48px)}55.29%{transform:translate(448px,48px)}55.76%{transform:translate(448px,80px)}59.06%{transform:translate(656px,64px)}59.29%{transform:translate(656px,48px)}60%{transform:translate(672px,16px)}60.47%{transform:translate(640px,16px)}60.71%,68.24%{transform:translate(640px,32px)}61.41%,83.53%{transform:translate(624px,64px)}64.47%{transform:translate(832px,64px)}64.71%{transform:translate(832px,48px)}65.18%{transform:translate(800px,48px)}65.65%{transform:translate(800px,16px)}67.76%{transform:translate(656px,16px)}68%{transform:translate(656px,32px)}68.47%{transform:translate(640px,48px)}76%{transform:translate(128px,48px)}76.24%{transform:translate(128px,64px)}83.76%{transform:translate(624px,80px)}87.76%{transform:translate(832px,16px)}98.35%{transform:translate(112px,16px)}98.82%{transform:translate(112px,-16px)}}.s.s3{transform:translate(48px,-16px);animation-name:s3}</style><rect class="c" x="2" y="2" rx="2" ry="2"/><rect class="c" x="2" y="18" rx="2" ry="2"/><rect class="c" x="2" y="34" rx="2" ry="2"/><rect class="c" x="2" y="50" rx="2" ry="2"/><rect class="c" x="2" y="66" rx="2" ry="2"/><rect class="c c0" x="2" y="82" rx="2" ry="2"/><rect class="c" x="2" y="98" rx="2" ry="2"/><rect class="c" x="18" y="2" rx="2" ry="2"/><rect class="c" x="18" y="18" rx="2" ry="2"/><rect class="c" x="18" y="34" rx="2" ry="2"/><rect class="c" x="18" y="50" rx="2" ry="2"/><rect class="c" x="18" y="66" rx="2" ry="2"/><rect class="c" x="18" y="82" rx="2" ry="2"/><rect class="c" x="18" y="98" rx="2" ry="2"/><rect class="c" x="34" y="2" rx="2" ry="2"/><rect class="c" x="34" y="18" rx="2" ry="2"/><rect class="c" x="34" y="34" rx="2" ry="2"/><rect class="c" x="34" y="50" rx="2" ry="2"/><rect class="c" x="34" y="66" rx="2" ry="2"/><rect class="c" x="34" y="82" rx="2" ry="2"/><rect class="c" x="34" y="98" rx="2" ry="2"/><rect class="c" x="50" y="2" rx="2" ry="2"/><rect class="c" x="50" y="18" rx="2" ry="2"/><rect class="c c1" x="50" y="34" rx="2" ry="2"/><rect class="c" x="50" y="50" rx="2" ry="2"/><rect class="c" x="50" y="66" rx="2" ry="2"/><rect class="c" x="50" y="82" rx="2" ry="2"/><rect class="c" x="50" y="98" rx="2" ry="2"/><rect class="c" x="66" y="2" rx="2" ry="2"/><rect class="c" x="66" y="18" rx="2" ry="2"/><rect class="c" x="66" y="34" rx="2" ry="2"/><rect class="c" x="66" y="50" rx="2" ry="2"/><rect class="c" x="66" y="66" rx="2" ry="2"/><rect class="c" x="66" y="82" rx="2" ry="2"/><rect class="c" x="66" y="98" rx="2" ry="2"/><rect class="c" x="82" y="2" rx="2" ry="2"/><rect class="c" x="82" y="18" rx="2" ry="2"/><rect class="c" x="82" y="34" rx="2" ry="2"/><rect class="c" x="82" y="50" rx="2" ry="2"/><rect class="c c2" x="82" y="66" rx="2" ry="2"/><rect class="c" x="82" y="82" rx="2" ry="2"/><rect class="c" x="82" y="98" rx="2" ry="2"/><rect class="c" x="98" y="2" rx="2" ry="2"/><rect class="c" x="98" y="18" rx="2" ry="2"/><rect class="c" x="98" y="34" rx="2" ry="2"/><rect class="c" x="98" y="50" rx="2" ry="2"/><rect class="c" x="98" y="66" rx="2" ry="2"/><rect class="c" x="98" y="82" rx="2" ry="2"/><rect class="c" x="98" y="98" rx="2" ry="2"/><rect class="c" x="114" y="2" rx="2" ry="2"/><rect class="c" x="114" y="18" rx="2" ry="2"/><rect class="c" x="114" y="34" rx="2" ry="2"/><rect class="c" x="114" y="50" rx="2" ry="2"/><rect class="c" x="114" y="66" rx="2" ry="2"/><rect class="c" x="114" y="82" rx="2" ry="2"/><rect class="c" x="114" y="98" rx="2" ry="2"/><rect class="c" x="130" y="2" rx="2" ry="2"/><rect class="c" x="130" y="18" rx="2" ry="2"/><rect class="c" x="130" y="34" rx="2" ry="2"/><rect class="c c3" x="130" y="50" rx="2" ry="2"/><rect class="c c4" x="130" y="66" rx="2" ry="2"/><rect class="c c5" x="130" y="82" rx="2" ry="2"/><rect class="c" x="130" y="98" rx="2" ry="2"/><rect class="c" x="146" y="2" rx="2" ry="2"/><rect class="c" x="146" y="18" rx="2" ry="2"/><rect class="c" x="146" y="34" rx="2" ry="2"/><rect class="c" x="146" y="50" rx="2" ry="2"/><rect class="c" x="146" y="66" rx="2" ry="2"/><rect class="c" x="146" y="82" rx="2" ry="2"/><rect class="c" x="146" y="98" rx="2" ry="2"/><rect class="c" x="162" y="2" rx="2" ry="2"/><rect class="c" x="162" y="18" rx="2" ry="2"/><rect class="c" x="162" y="34" rx="2" ry="2"/><rect class="c" x="162" y="50" rx="2" ry="2"/><rect class="c" x="162" y="66" rx="2" ry="2"/><rect class="c" x="162" y="82" rx="2" ry="2"/><rect class="c" x="162" y="98" rx="2" ry="2"/><rect class="c" x="178" y="2" rx="2" ry="2"/><rect class="c" x="178" y="18" rx="2" ry="2"/><rect class="c" x="178" y="34" rx="2" ry="2"/><rect class="c c6" x="178" y="50" rx="2" ry="2"/><rect class="c" x="178" y="66" rx="2" ry="2"/><rect class="c" x="178" y="82" rx="2" ry="2"/><rect class="c" x="178" y="98" rx="2" ry="2"/><rect class="c" x="194" y="2" rx="2" ry="2"/><rect class="c" x="194" y="18" rx="2" ry="2"/><rect class="c" x="194" y="34" rx="2" ry="2"/><rect class="c" x="194" y="50" rx="2" ry="2"/><rect class="c" x="194" y="66" rx="2" ry="2"/><rect class="c" x="194" y="82" rx="2" ry="2"/><rect class="c" x="194" y="98" rx="2" ry="2"/><rect class="c" x="210" y="2" rx="2" ry="2"/><rect class="c" x="210" y="18" rx="2" ry="2"/><rect class="c" x="210" y="34" rx="2" ry="2"/><rect class="c c7" x="210" y="50" rx="2" ry="2"/><rect class="c" x="210" y="66" rx="2" ry="2"/><rect class="c c8" x="210" y="82" rx="2" ry="2"/><rect class="c" x="210" y="98" rx="2" ry="2"/><rect class="c" x="226" y="2" rx="2" ry="2"/><rect class="c" x="226" y="18" rx="2" ry="2"/><rect class="c" x="226" y="34" rx="2" ry="2"/><rect class="c" x="226" y="50" rx="2" ry="2"/><rect class="c" x="226" y="66" rx="2" ry="2"/><rect class="c" x="226" y="82" rx="2" ry="2"/><rect class="c" x="226" y="98" rx="2" ry="2"/><rect class="c" x="242" y="2" rx="2" ry="2"/><rect class="c" x="242" y="18" rx="2" ry="2"/><rect class="c" x="242" y="34" rx="2" ry="2"/><rect class="c" x="242" y="50" rx="2" ry="2"/><rect class="c" x="242" y="66" rx="2" ry="2"/><rect class="c" x="242" y="82" rx="2" ry="2"/><rect class="c" x="242" y="98" rx="2" ry="2"/><rect class="c" x="258" y="2" rx="2" ry="2"/><rect class="c" x="258" y="18" rx="2" ry="2"/><rect class="c" x="258" y="34" rx="2" ry="2"/><rect class="c" x="258" y="50" rx="2" ry="2"/><rect class="c c9" x="258" y="66" rx="2" ry="2"/><rect class="c" x="258" y="82" rx="2" ry="2"/><rect class="c" x="258" y="98" rx="2" ry="2"/><rect class="c" x="274" y="2" rx="2" ry="2"/><rect class="c" x="274" y="18" rx="2" ry="2"/><rect class="c ca" x="274" y="34" rx="2" ry="2"/><rect class="c cb" x="274" y="50" rx="2" ry="2"/><rect class="c cc" x="274" y="66" rx="2" ry="2"/><rect class="c" x="274" y="82" rx="2" ry="2"/><rect class="c" x="274" y="98" rx="2" ry="2"/><rect class="c" x="290" y="2" rx="2" ry="2"/><rect class="c cd" x="290" y="18" rx="2" ry="2"/><rect class="c" x="290" y="34" rx="2" ry="2"/><rect class="c ce" x="290" y="50" rx="2" ry="2"/><rect class="c cf" x="290" y="66" rx="2" ry="2"/><rect class="c" x="290" y="82" rx="2" ry="2"/><rect class="c" x="290" y="98" rx="2" ry="2"/><rect class="c" x="306" y="2" rx="2" ry="2"/><rect class="c cg" x="306" y="18" rx="2" ry="2"/><rect class="c ch" x="306" y="34" rx="2" ry="2"/><rect class="c" x="306" y="50" rx="2" ry="2"/><rect class="c" x="306" y="66" rx="2" ry="2"/><rect class="c" x="306" y="82" rx="2" ry="2"/><rect class="c" x="306" y="98" rx="2" ry="2"/><rect class="c" x="322" y="2" rx="2" ry="2"/><rect class="c" x="322" y="18" rx="2" ry="2"/><rect class="c" x="322" y="34" rx="2" ry="2"/><rect class="c" x="322" y="50" rx="2" ry="2"/><rect class="c" x="322" y="66" rx="2" ry="2"/><rect class="c" x="322" y="82" rx="2" ry="2"/><rect class="c" x="322" y="98" rx="2" ry="2"/><rect class="c" x="338" y="2" rx="2" ry="2"/><rect class="c" x="338" y="18" rx="2" ry="2"/><rect class="c" x="338" y="34" rx="2" ry="2"/><rect class="c" x="338" y="50" rx="2" ry="2"/><rect class="c" x="338" y="66" rx="2" ry="2"/><rect class="c" x="338" y="82" rx="2" ry="2"/><rect class="c" x="338" y="98" rx="2" ry="2"/><rect class="c" x="354" y="2" rx="2" ry="2"/><rect class="c" x="354" y="18" rx="2" ry="2"/><rect class="c" x="354" y="34" rx="2" ry="2"/><rect class="c" x="354" y="50" rx="2" ry="2"/><rect class="c" x="354" y="66" rx="2" ry="2"/><rect class="c" x="354" y="82" rx="2" ry="2"/><rect class="c" x="354" y="98" rx="2" ry="2"/><rect class="c" x="370" y="2" rx="2" ry="2"/><rect class="c" x="370" y="18" rx="2" ry="2"/><rect class="c" x="370" y="34" rx="2" ry="2"/><rect class="c" x="370" y="50" rx="2" ry="2"/><rect class="c" x="370" y="66" rx="2" ry="2"/><rect class="c" x="370" y="82" rx="2" ry="2"/><rect class="c" x="370" y="98" rx="2" ry="2"/><rect class="c" x="386" y="2" rx="2" ry="2"/><rect class="c" x="386" y="18" rx="2" ry="2"/><rect class="c ci" x="386" y="34" rx="2" ry="2"/><rect class="c" x="386" y="50" rx="2" ry="2"/><rect class="c" x="386" y="66" rx="2" ry="2"/><rect class="c" x="386" y="82" rx="2" ry="2"/><rect class="c" x="386" y="98" rx="2" ry="2"/><rect class="c" x="402" y="2" rx="2" ry="2"/><rect class="c" x="402" y="18" rx="2" ry="2"/><rect class="c" x="402" y="34" rx="2" ry="2"/><rect class="c" x="402" y="50" rx="2" ry="2"/><rect class="c" x="402" y="66" rx="2" ry="2"/><rect class="c" x="402" y="82" rx="2" ry="2"/><rect class="c" x="402" y="98" rx="2" ry="2"/><rect class="c" x="418" y="2" rx="2" ry="2"/><rect class="c" x="418" y="18" rx="2" ry="2"/><rect class="c" x="418" y="34" rx="2" ry="2"/><rect class="c" x="418" y="50" rx="2" ry="2"/><rect class="c" x="418" y="66" rx="2" ry="2"/><rect class="c" x="418" y="82" rx="2" ry="2"/><rect class="c" x="418" y="98" rx="2" ry="2"/><rect class="c" x="434" y="2" rx="2" ry="2"/><rect class="c" x="434" y="18" rx="2" ry="2"/><rect class="c" x="434" y="34" rx="2" ry="2"/><rect class="c" x="434" y="50" rx="2" ry="2"/><rect class="c" x="434" y="66" rx="2" ry="2"/><rect class="c" x="434" y="82" rx="2" ry="2"/><rect class="c" x="434" y="98" rx="2" ry="2"/><rect class="c" x="450" y="2" rx="2" ry="2"/><rect class="c" x="450" y="18" rx="2" ry="2"/><rect class="c" x="450" y="34" rx="2" ry="2"/><rect class="c cj" x="450" y="50" rx="2" ry="2"/><rect class="c ck" x="450" y="66" rx="2" ry="2"/><rect class="c cl" x="450" y="82" rx="2" ry="2"/><rect class="c" x="450" y="98" rx="2" ry="2"/><rect class="c" x="466" y="2" rx="2" ry="2"/><rect class="c" x="466" y="18" rx="2" ry="2"/><rect class="c" x="466" y="34" rx="2" ry="2"/><rect class="c" x="466" y="50" rx="2" ry="2"/><rect class="c" x="466" y="66" rx="2" ry="2"/><rect class="c" x="466" y="82" rx="2" ry="2"/><rect class="c" x="466" y="98" rx="2" ry="2"/><rect class="c" x="482" y="2" rx="2" ry="2"/><rect class="c" x="482" y="18" rx="2" ry="2"/><rect class="c" x="482" y="34" rx="2" ry="2"/><rect class="c" x="482" y="50" rx="2" ry="2"/><rect class="c" x="482" y="66" rx="2" ry="2"/><rect class="c" x="482" y="82" rx="2" ry="2"/><rect class="c" x="482" y="98" rx="2" ry="2"/><rect class="c" x="498" y="2" rx="2" ry="2"/><rect class="c" x="498" y="18" rx="2" ry="2"/><rect class="c" x="498" y="34" rx="2" ry="2"/><rect class="c" x="498" y="50" rx="2" ry="2"/><rect class="c" x="498" y="66" rx="2" ry="2"/><rect class="c" x="498" y="82" rx="2" ry="2"/><rect class="c" x="498" y="98" rx="2" ry="2"/><rect class="c" x="514" y="2" rx="2" ry="2"/><rect class="c" x="514" y="18" rx="2" ry="2"/><rect class="c" x="514" y="34" rx="2" ry="2"/><rect class="c" x="514" y="50" rx="2" ry="2"/><rect class="c" x="514" y="66" rx="2" ry="2"/><rect class="c" x="514" y="82" rx="2" ry="2"/><rect class="c" x="514" y="98" rx="2" ry="2"/><rect class="c" x="530" y="2" rx="2" ry="2"/><rect class="c" x="530" y="18" rx="2" ry="2"/><rect class="c cm" x="530" y="34" rx="2" ry="2"/><rect class="c" x="530" y="50" rx="2" ry="2"/><rect class="c" x="530" y="66" rx="2" ry="2"/><rect class="c" x="530" y="82" rx="2" ry="2"/><rect class="c" x="530" y="98" rx="2" ry="2"/><rect class="c" x="546" y="2" rx="2" ry="2"/><rect class="c" x="546" y="18" rx="2" ry="2"/><rect class="c" x="546" y="34" rx="2" ry="2"/><rect class="c" x="546" y="50" rx="2" ry="2"/><rect class="c cn" x="546" y="66" rx="2" ry="2"/><rect class="c co" x="546" y="82" rx="2" ry="2"/><rect class="c" x="546" y="98" rx="2" ry="2"/><rect class="c" x="562" y="2" rx="2" ry="2"/><rect class="c cp" x="562" y="18" rx="2" ry="2"/><rect class="c cq" x="562" y="34" rx="2" ry="2"/><rect class="c cr" x="562" y="50" rx="2" ry="2"/><rect class="c cs" x="562" y="66" rx="2" ry="2"/><rect class="c ct" x="562" y="82" rx="2" ry="2"/><rect class="c" x="562" y="98" rx="2" ry="2"/><rect class="c" x="578" y="2" rx="2" ry="2"/><rect class="c cu" x="578" y="18" rx="2" ry="2"/><rect class="c cv" x="578" y="34" rx="2" ry="2"/><rect class="c cw" x="578" y="50" rx="2" ry="2"/><rect class="c cx" x="578" y="66" rx="2" ry="2"/><rect class="c cy" x="578" y="82" rx="2" ry="2"/><rect class="c" x="578" y="98" rx="2" ry="2"/><rect class="c" x="594" y="2" rx="2" ry="2"/><rect class="c cz" x="594" y="18" rx="2" ry="2"/><rect class="c c10" x="594" y="34" rx="2" ry="2"/><rect class="c" x="594" y="50" rx="2" ry="2"/><rect class="c c11" x="594" y="66" rx="2" ry="2"/><rect class="c" x="594" y="82" rx="2" ry="2"/><rect class="c" x="594" y="98" rx="2" ry="2"/><rect class="c" x="610" y="2" rx="2" ry="2"/><rect class="c c12" x="610" y="18" rx="2" ry="2"/><rect class="c c13" x="610" y="34" rx="2" ry="2"/><rect class="c c14" x="610" y="50" rx="2" ry="2"/><rect class="c c15" x="610" y="66" rx="2" ry="2"/><rect class="c c16" x="610" y="82" rx="2" ry="2"/><rect class="c" x="610" y="98" rx="2" ry="2"/><rect class="c" x="626" y="2" rx="2" ry="2"/><rect class="c" x="626" y="18" rx="2" ry="2"/><rect class="c c17" x="626" y="34" rx="2" ry="2"/><rect class="c" x="626" y="50" rx="2" ry="2"/><rect class="c" x="626" y="66" rx="2" ry="2"/><rect class="c c18" x="626" y="82" rx="2" ry="2"/><rect class="c" x="626" y="98" rx="2" ry="2"/><rect class="c" x="642" y="2" rx="2" ry="2"/><rect class="c c19" x="642" y="18" rx="2" ry="2"/><rect class="c c1a" x="642" y="34" rx="2" ry="2"/><rect class="c c1b" x="642" y="50" rx="2" ry="2"/><rect class="c c1c" x="642" y="66" rx="2" ry="2"/><rect class="c c1d" x="642" y="82" rx="2" ry="2"/><rect class="c" x="642" y="98" rx="2" ry="2"/><rect class="c" x="658" y="2" rx="2" ry="2"/><rect class="c" x="658" y="18" rx="2" ry="2"/><rect class="c c1e" x="658" y="34" rx="2" ry="2"/><rect class="c c1f" x="658" y="50" rx="2" ry="2"/><rect class="c c1g" x="658" y="66" rx="2" ry="2"/><rect class="c c1h" x="658" y="82" rx="2" ry="2"/><rect class="c" x="658" y="98" rx="2" ry="2"/><rect class="c" x="674" y="2" rx="2" ry="2"/><rect class="c" x="674" y="18" rx="2" ry="2"/><rect class="c" x="674" y="34" rx="2" ry="2"/><rect class="c c1i" x="674" y="50" rx="2" ry="2"/><rect class="c" x="674" y="66" rx="2" ry="2"/><rect class="c c1j" x="674" y="82" rx="2" ry="2"/><rect class="c" x="674" y="98" rx="2" ry="2"/><rect class="c" x="690" y="2" rx="2" ry="2"/><rect class="c c1k" x="690" y="18" rx="2" ry="2"/><rect class="c" x="690" y="34" rx="2" ry="2"/><rect class="c" x="690" y="50" rx="2" ry="2"/><rect class="c c1l" x="690" y="66" rx="2" ry="2"/><rect class="c c1m" x="690" y="82" rx="2" ry="2"/><rect class="c" x="690" y="98" rx="2" ry="2"/><rect class="c" x="706" y="2" rx="2" ry="2"/><rect class="c c1n" x="706" y="18" rx="2" ry="2"/><rect class="c c1o" x="706" y="34" rx="2" ry="2"/><rect class="c c1p" x="706" y="50" rx="2" ry="2"/><rect class="c c1q" x="706" y="66" rx="2" ry="2"/><rect class="c" x="706" y="82" rx="2" ry="2"/><rect class="c" x="706" y="98" rx="2" ry="2"/><rect class="c" x="722" y="2" rx="2" ry="2"/><rect class="c" x="722" y="18" rx="2" ry="2"/><rect class="c" x="722" y="34" rx="2" ry="2"/><rect class="c" x="722" y="50" rx="2" ry="2"/><rect class="c" x="722" y="66" rx="2" ry="2"/><rect class="c" x="722" y="82" rx="2" ry="2"/><rect class="c" x="722" y="98" rx="2" ry="2"/><rect class="c" x="738" y="2" rx="2" ry="2"/><rect class="c" x="738" y="18" rx="2" ry="2"/><rect class="c c1r" x="738" y="34" rx="2" ry="2"/><rect class="c c1s" x="738" y="50" rx="2" ry="2"/><rect class="c c1t" x="738" y="66" rx="2" ry="2"/><rect class="c" x="738" y="82" rx="2" ry="2"/><rect class="c" x="738" y="98" rx="2" ry="2"/><rect class="c" x="754" y="2" rx="2" ry="2"/><rect class="c c1u" x="754" y="18" rx="2" ry="2"/><rect class="c c1v" x="754" y="34" rx="2" ry="2"/><rect class="c c1w" x="754" y="50" rx="2" ry="2"/><rect class="c" x="754" y="66" rx="2" ry="2"/><rect class="c" x="754" y="82" rx="2" ry="2"/><rect class="c" x="754" y="98" rx="2" ry="2"/><rect class="c" x="770" y="2" rx="2" ry="2"/><rect class="c" x="770" y="18" rx="2" ry="2"/><rect class="c" x="770" y="34" rx="2" ry="2"/><rect class="c c1x" x="770" y="50" rx="2" ry="2"/><rect class="c c1y" x="770" y="66" rx="2" ry="2"/><rect class="c c1z" x="770" y="82" rx="2" ry="2"/><rect class="c" x="770" y="98" rx="2" ry="2"/><rect class="c" x="786" y="2" rx="2" ry="2"/><rect class="c" x="786" y="18" rx="2" ry="2"/><rect class="c c20" x="786" y="34" rx="2" ry="2"/><rect class="c" x="786" y="50" rx="2" ry="2"/><rect class="c c21" x="786" y="66" rx="2" ry="2"/><rect class="c c22" x="786" y="82" rx="2" ry="2"/><rect class="c" x="786" y="98" rx="2" ry="2"/><rect class="c" x="802" y="2" rx="2" ry="2"/><rect class="c c23" x="802" y="18" rx="2" ry="2"/><rect class="c c24" x="802" y="34" rx="2" ry="2"/><rect class="c c25" x="802" y="50" rx="2" ry="2"/><rect class="c c26" x="802" y="66" rx="2" ry="2"/><rect class="c c27" x="802" y="82" rx="2" ry="2"/><rect class="c" x="802" y="98" rx="2" ry="2"/><rect class="c" x="818" y="2" rx="2" ry="2"/><rect class="c c28" x="818" y="18" rx="2" ry="2"/><rect class="c c29" x="818" y="34" rx="2" ry="2"/><rect class="c c2a" x="818" y="50" rx="2" ry="2"/><rect class="c" x="818" y="66" rx="2" ry="2"/><rect class="c c2b" x="818" y="82" rx="2" ry="2"/><rect class="c" x="818" y="98" rx="2" ry="2"/><rect class="c" x="834" y="2" rx="2" ry="2"/><rect class="c c2c" x="834" y="18" rx="2" ry="2"/><rect class="c c2d" x="834" y="34" rx="2" ry="2"/><rect class="c c2e" x="834" y="50" rx="2" ry="2"/><rect class="c c2f" x="834" y="66" rx="2" ry="2"/><rect class="c c2g" x="834" y="82" rx="2" ry="2"/><rect class="c c2h" x="834" y="98" rx="2" ry="2"/><rect class="u u0" height="12" width="707.3" x="0.0" y="144"/><rect class="u u1" height="12" width="76.0" x="706.7" y="144"/><rect class="u u2" height="12" width="47.7" x="782.0" y="144"/><rect class="u u3" height="12" width="19.4" x="829.2" y="144"/><rect class="s s0" x="0.8" y="0.8" width="14.4" height="14.4" rx="4.5" ry="4.5"/><rect class="s s1" x="1.8" y="1.8" width="12.3" height="12.3" rx="4.1" ry="4.1"/><rect class="s s2" x="2.6" y="2.6" width="10.8" height="10.8" rx="3.6" ry="3.6"/><rect class="s s3" x="3.0" y="3.0" width="9.9" height="9.9" rx="3.3" ry="3.3"/></svg>